<svg xmlns="http://www.w3.org/2000/svg" width="84" height="81" fill="none"><rect width="82.712" height="80" x=".661" y=".764" fill="#DFBB7F" rx="40"/><path stroke="#fff" stroke-linecap="round" stroke-linejoin="round" stroke-width="4" d="M23.688 40.264h35.624"/><path stroke="#fff" stroke-linejoin="round" stroke-width="4" d="M45.25 21.514h-7.5a1.875 1.875 0 0 0-1.875 1.875v7.5a1.875 1.875 0 0 0 1.875 1.875h7.5a1.875 1.875 0 0 0 1.875-1.875v-7.5a1.875 1.875 0 0 0-1.875-1.875ZM34 47.764h-7.5a1.875 1.875 0 0 0-1.875 1.875v7.5a1.875 1.875 0 0 0 1.875 1.875H34a1.875 1.875 0 0 0 1.875-1.875v-7.5A1.875 1.875 0 0 0 34 47.764ZM56.5 47.764H49a1.875 1.875 0 0 0-1.875 1.875v7.5A1.875 1.875 0 0 0 49 59.014h7.5a1.875 1.875 0 0 0 1.875-1.875v-7.5a1.875 1.875 0 0 0-1.875-1.875Z"/><path stroke="#fff" stroke-linecap="round" stroke-linejoin="round" stroke-width="4" d="M41.5 40.264v-7.5M52.75 47.764v-7.5M30.25 47.764v-7.5"/></svg>