<svg xmlns="http://www.w3.org/2000/svg" width="84" height="81" fill="none"><rect width="82.712" height="80" x=".661" y=".764" fill="#DFBB7F" rx="40"/><path stroke="#fff" stroke-linecap="round" stroke-linejoin="round" stroke-width="3" d="m36.938 56.014-1.688 6.75-2.25 2.25h18l-2.25-2.25-1.688-6.75H36.938Zm-15.188-9h40.5-40.5Zm4.5 9h31.5a4.5 4.5 0 0 0 4.5-4.5v-22.5a4.5 4.5 0 0 0-4.5-4.5h-31.5a4.5 4.5 0 0 0-4.5 4.5v22.5a4.5 4.5 0 0 0 4.5 4.5Z"/><path fill="#fff" fill-rule="evenodd" d="M43.193 33.533a.957.957 0 0 0-.554.166c-.147.107-.23.251-.23.401v4.538c0 .151.083.295.23.402a.957.957 0 0 0 .554.166h3.137c.208 0 .407-.06.554-.166.147-.107.23-.251.23-.401V34.1c0-.15-.083-.294-.23-.4a.957.957 0 0 0-.554-.167h-3.137Zm2.352 1.135h-1.568v3.403h1.569v-3.403Z" clip-rule="evenodd"/><path fill="#fff" d="M36.92 33.533a.956.956 0 0 0-.554.166c-.147.107-.23.251-.23.401 0 .151.083.295.23.402a.956.956 0 0 0 .554.166h3.137c.208 0 .407-.06.554-.166.147-.107.23-.251.23-.402 0-.15-.083-.294-.23-.4a.956.956 0 0 0-.554-.167H36.92ZM36.92 35.803a.957.957 0 0 0-.554.166c-.147.106-.23.25-.23.4 0 .151.083.295.23.402a.956.956 0 0 0 .554.166h3.137c.208 0 .407-.06.554-.166.147-.107.23-.25.23-.401 0-.15-.083-.295-.23-.401a.957.957 0 0 0-.554-.166H36.92ZM36.136 38.639c0-.15.083-.295.23-.402a.956.956 0 0 1 .554-.166h3.137c.208 0 .407.06.554.166.147.107.23.251.23.402 0 .15-.083.294-.23.4a.956.956 0 0 1-.554.167H36.92a.956.956 0 0 1-.554-.166c-.147-.107-.23-.251-.23-.401Z"/><path fill="#fff" fill-rule="evenodd" d="M35.352 31.264c-.624 0-1.222.18-1.663.499-.441.319-.689.752-.689 1.203v6.807c0 .451.248.884.689 1.203.441.32 1.04.499 1.663.499h12.546c.624 0 1.222-.18 1.663-.498.441-.32.689-.752.689-1.204v-6.807c0-.451-.248-.884-.689-1.203-.441-.32-1.04-.499-1.663-.499H35.352ZM47.898 32.4H35.352a.957.957 0 0 0-.554.166c-.147.106-.23.25-.23.401v6.807c0 .15.083.295.23.401a.957.957 0 0 0 .554.166h12.546c.208 0 .407-.06.554-.166.147-.106.23-.25.23-.4v-6.808c0-.15-.083-.295-.23-.4a.957.957 0 0 0-.554-.167Z" clip-rule="evenodd"/></svg>