<svg xmlns="http://www.w3.org/2000/svg" width="32" height="32" fill="none"><path stroke="#fff" d="M1 16C1 7.716 7.716 1 16 1c8.284 0 15 6.716 15 15 0 8.284-6.716 15-15 15-8.284 0-15-6.716-15-15Z" clip-rule="evenodd" opacity=".5"/><path fill="#fff" fill-rule="evenodd" d="M16 8.5c-2.036 0-2.292.009-3.092.045-.798.037-1.343.163-1.82.349a3.673 3.673 0 0 0-1.329.865 3.682 3.682 0 0 0-.865 1.328c-.186.477-.313 1.022-.349 1.82-.036.8-.045 1.056-.045 3.093s.01 2.292.045 3.092c.037.798.163 1.343.349 1.82.191.493.448.912.865 1.329.416.417.835.674 1.328.865.477.186 1.022.312 1.82.349.8.036 1.056.045 3.093.045s2.292-.009 3.092-.045c.798-.037 1.344-.163 1.82-.349a3.67 3.67 0 0 0 1.329-.865 3.68 3.68 0 0 0 .865-1.329c.185-.477.311-1.022.349-1.82.036-.8.045-1.055.045-3.092s-.01-2.293-.045-3.092c-.038-.799-.164-1.344-.349-1.82a3.68 3.68 0 0 0-.865-1.33 3.666 3.666 0 0 0-1.328-.864c-.479-.186-1.024-.312-1.822-.349-.8-.036-1.055-.045-3.093-.045h.003Zm-.672 1.352H16c2.002 0 2.24.007 3.03.043.732.033 1.129.155 1.393.258.35.136.6.298.862.56.262.263.425.513.561.863.103.264.225.661.258 1.393.036.79.044 1.028.044 3.03 0 2-.008 2.238-.044 3.029-.033.731-.155 1.128-.258 1.392-.136.35-.299.6-.561.862a2.319 2.319 0 0 1-.862.56c-.264.104-.661.226-1.393.26-.79.035-1.028.043-3.03.043-2.003 0-2.24-.008-3.031-.044-.731-.034-1.128-.156-1.393-.258-.35-.137-.6-.299-.862-.561a2.323 2.323 0 0 1-.561-.863c-.103-.264-.225-.66-.259-1.392-.036-.79-.043-1.028-.043-3.03 0-2.003.007-2.24.043-3.03.034-.732.156-1.128.259-1.393.136-.35.298-.6.56-.862.263-.263.513-.425.863-.562.265-.103.662-.225 1.393-.258.692-.031.96-.04 2.358-.042v.002Zm4.676 1.245a.9.9 0 1 0 0 1.8.9.9 0 0 0 0-1.8Zm-4.003 1.051a3.852 3.852 0 1 0 0 7.704 3.852 3.852 0 0 0 0-7.704Zm0 1.352a2.5 2.5 0 1 1 0 5 2.5 2.5 0 0 1 0-5Z" clip-rule="evenodd"/></svg>