<svg xmlns="http://www.w3.org/2000/svg" width="84" height="81" fill="none"><rect width="82.712" height="80" x=".661" y=".764" fill="#DFBB7F" rx="40"/><path fill="#fff" d="m60.267 28.248-5.75-5.75a1.437 1.437 0 0 0-2.034 0l-17.25 17.25a1.437 1.437 0 0 0-.42 1.016v5.75a1.438 1.438 0 0 0 1.437 1.438H42a1.438 1.438 0 0 0 1.017-.421l17.25-17.25a1.437 1.437 0 0 0 0-2.033ZM41.404 45.077h-3.718V41.36l11.5-11.5 3.718 3.717-11.5 11.5Zm13.532-13.533-3.716-3.717 2.279-2.28 3.717 3.717-2.28 2.28Zm4.313 7.783v15.812a2.878 2.878 0 0 1-2.875 2.875h-28.75a2.879 2.879 0 0 1-2.875-2.875V26.39a2.878 2.878 0 0 1 2.875-2.875h15.813a1.438 1.438 0 1 1 0 2.875H27.624v28.75h28.75V39.327a1.437 1.437 0 1 1 2.875 0Z"/></svg>