<svg xmlns="http://www.w3.org/2000/svg" width="33" height="32" fill="none"><ellipse cx="16.5" cy="16.264" fill="#fff" fill-opacity=".3" rx="16.5" ry="15.5"/><path stroke="#fff" stroke-opacity=".9" d="m19.28 20.357.242.03.173-.173 1.468-1.468a.937.937 0 0 1 1-.205h.001l1.787.713a.93.93 0 0 1 .58.852v3.276a.924.924 0 0 1-.968.914c-6.113-.38-9.748-3.146-11.928-6.293-2.196-3.168-2.934-6.75-3.17-8.745a.924.924 0 0 1 .925-1.025h3.172a.918.918 0 0 1 .849.578l.715 1.792.001.003a.918.918 0 0 1-.2.994l-1.469 1.47-.178.177.037.249.495-.073-.495.073v.003l.001.005.003.016a4.93 4.93 0 0 0 .05.256 9.682 9.682 0 0 0 1.147 2.859c.98 1.617 2.732 3.344 5.762 3.722Z"/></svg>