<svg xmlns="http://www.w3.org/2000/svg" width="32" height="32" fill="none"><path stroke="#fff" d="M1 16C1 7.716 7.716 1 16 1c8.284 0 15 6.716 15 15 0 8.284-6.716 15-15 15-8.284 0-15-6.716-15-15Z" clip-rule="evenodd" opacity=".5"/><path fill="#fff" d="M22.488 10.08 9.2 14.966c-.906.347-.901.83-.166 1.045l3.411 1.015 7.893-4.75c.373-.217.714-.1.434.137l-6.395 5.505h-.001.001l-.235 3.355c.345 0 .497-.15.69-.329l1.657-1.537 3.447 2.428c.635.334 1.092.163 1.25-.56l2.262-10.172c.232-.885-.354-1.286-.96-1.025Z"/></svg>