<svg xmlns="http://www.w3.org/2000/svg" width="84" height="81" fill="none"><rect width="82.712" height="80" x=".661" y=".764" fill="#DFBB7F" rx="40"/><path fill="#fff" d="M45.375 29.64h3.375v3.374h-3.375V29.64ZM35.25 29.64h3.375v3.374H35.25V29.64Z"/><path fill="#fff" d="M58.875 46.514h-8.438V43.14h1.688a3.379 3.379 0 0 0 3.375-3.375v-6.75h3.375V29.64H55.5v-3.375a3.379 3.379 0 0 0-3.375-3.375H48.75v-6.75h-3.375v6.75h-6.75v-6.75H35.25v6.75h-3.375a3.379 3.379 0 0 0-3.375 3.375v3.375h-3.375v3.375H28.5v6.75a3.379 3.379 0 0 0 3.375 3.375h1.688v3.375h-8.438a3.379 3.379 0 0 0-3.375 3.375v13.5h3.375v-13.5h33.75v13.5h3.375v-13.5a3.379 3.379 0 0 0-3.375-3.375Zm-27-20.25h20.25v13.5h-20.25v-13.5Zm5.063 16.875h10.124v3.375H36.938V43.14Z"/></svg>