<svg xmlns="http://www.w3.org/2000/svg" width="84" height="81" fill="none"><rect width="82.712" height="80" x=".661" y=".764" fill="#DFBB7F" rx="40"/><path fill="#fff" fill-rule="evenodd" d="M45.976 31.694c-.517 0-1.012.2-1.378.556-.365.356-.57.839-.57 1.343v15.192c0 .503.205.986.57 1.342.366.356.861.557 1.378.557h7.793c.516 0 1.012-.2 1.377-.557.366-.356.57-.839.57-1.342V33.593c0-.504-.204-.987-.57-1.343a1.974 1.974 0 0 0-1.377-.556h-7.793Zm5.845 3.798h-3.897v11.394h3.897V35.492Z" clip-rule="evenodd"/><path fill="#fff" d="M30.39 31.694c-.516 0-1.012.2-1.377.556-.365.356-.57.839-.57 1.343 0 .503.205.986.57 1.342.365.357.86.557 1.378.557h7.792c.517 0 1.013-.2 1.378-.557.365-.356.57-.839.57-1.342 0-.504-.205-.987-.57-1.343a1.974 1.974 0 0 0-1.378-.556h-7.792ZM30.39 39.29c-.516 0-1.012.2-1.377.556-.365.356-.57.839-.57 1.343 0 .503.205.986.57 1.343.365.356.86.556 1.378.556h7.792c.517 0 1.013-.2 1.378-.556.365-.357.57-.84.57-1.343 0-.504-.205-.987-.57-1.343a1.974 1.974 0 0 0-1.378-.556h-7.792ZM28.442 48.785c0-.504.206-.987.571-1.343s.86-.556 1.378-.556h7.792c.517 0 1.013.2 1.378.556.365.356.57.839.57 1.343 0 .503-.205.986-.57 1.343-.365.356-.861.556-1.378.556h-7.792c-.517 0-1.013-.2-1.378-.556a1.875 1.875 0 0 1-.57-1.343Z"/><path fill="#fff" fill-rule="evenodd" d="M26.494 24.098c-1.55 0-3.036.6-4.132 1.668a5.625 5.625 0 0 0-1.712 4.029v22.788c0 1.51.616 2.96 1.712 4.028a5.922 5.922 0 0 0 4.132 1.669h31.171c1.55 0 3.037-.6 4.133-1.669a5.625 5.625 0 0 0 1.712-4.028V29.795c0-1.511-.616-2.96-1.712-4.029a5.922 5.922 0 0 0-4.133-1.668h-31.17Zm31.171 3.798h-31.17c-.517 0-1.013.2-1.378.556-.366.356-.57.84-.57 1.343v22.788c0 .503.204.986.57 1.342.365.357.86.557 1.377.557h31.171c.517 0 1.012-.2 1.378-.557.365-.356.57-.839.57-1.342V29.795c0-.504-.205-.987-.57-1.343a1.973 1.973 0 0 0-1.378-.556Z" clip-rule="evenodd"/></svg>