<svg xmlns="http://www.w3.org/2000/svg" width="32" height="32" fill="none"><path stroke="#fff" d="M1 16C1 7.716 7.716 1 16 1c8.284 0 15 6.716 15 15 0 8.284-6.716 15-15 15-8.284 0-15-6.716-15-15Z" clip-rule="evenodd" opacity=".5"/><path fill="#fff" fill-rule="evenodd" d="M21.86 11.086c.646.185 1.154.73 1.326 1.42.314 1.254.314 3.869.314 3.869s0 2.615-.314 3.868c-.172.692-.68 1.236-1.326 1.421C20.69 22 16 22 16 22s-4.69 0-5.86-.336c-.646-.185-1.154-.73-1.327-1.42C8.5 18.99 8.5 16.374 8.5 16.374s0-2.615.313-3.868c.173-.692.681-1.236 1.327-1.421 1.17-.336 5.86-.336 5.86-.336s4.69 0 5.86.336Zm-7.266 3.088v4.891l3.75-2.445-3.75-2.446Z" clip-rule="evenodd"/></svg>